# This file uses feet as units for non-parametric coordinates.

mtllib police siren.mtl
g default
v 46.001152 167.954514 68.237473
v 14.193910 167.954483 68.237480
v 46.001137 158.041321 68.237473
v 14.193915 158.041306 68.237465
v 30.097521 155.948441 70.450401
v 30.097538 170.047394 70.450401
v 46.001160 167.954514 -68.237358
v 14.193915 167.954483 -68.237373
v 46.001141 158.041321 -68.237358
v 14.193921 158.041306 -68.237358
v 30.097528 155.948441 -70.450310
v 30.097546 170.047394 -70.450310
v 37.614338 159.109161 -59.116741
v 37.614319 149.195969 -59.116741
v 37.614342 159.109161 -52.747051
v 37.614315 149.195969 -52.747051
v 22.580746 159.109116 -59.116745
v 22.580753 149.195953 -59.116734
v 22.580748 159.109116 -52.747059
v 22.580753 149.195953 -52.747047
v 37.614338 159.109161 -59.116741
v 37.614319 149.195969 -59.116741
v 22.580753 149.195953 -59.116734
v 22.580746 159.109116 -59.116745
v 22.580753 149.195953 -52.747047
v 22.580748 159.109116 -52.747059
v 37.614342 159.109161 -52.747051
v 37.614315 149.195969 -52.747051
v 37.614330 159.109161 59.116787
v 37.614315 149.195969 59.116787
v 37.614330 159.109161 52.747089
v 37.614323 149.195969 52.747089
v 37.614330 159.109161 59.116787
v 37.614315 149.195969 59.116787
v 22.580746 149.195953 59.116791
v 22.580740 159.109116 59.116802
v 22.580740 159.109116 59.116802
v 22.580746 149.195953 59.116791
v 22.580742 159.109116 52.747116
v 22.580746 149.195953 52.747097
v 22.580746 149.195953 52.747097
v 22.580742 159.109116 52.747116
v 37.614330 159.109161 52.747089
v 37.614323 149.195969 52.747089
vt 0.088743 0.261752
vt 0.061780 0.265471
vt 0.061780 0.028630
vt 0.088743 0.032350
vt 0.034817 0.261752
vt 0.018154 0.261752
vt 0.018154 0.032350
vt 0.034817 0.032350
vt 0.061780 0.032804
vt 0.088771 0.033603
vt 0.088770 0.070832
vt 0.061780 0.071630
vt 0.034817 0.261752
vt 0.034817 0.032350
vt 0.061780 0.028630
vt 0.061780 0.265471
vt 0.034790 0.033602
vt 0.034790 0.070831
vt 0.061780 0.265471
vt 0.061780 0.028630
vt 0.088743 0.032350
vt 0.088743 0.261751
vt 0.061780 0.261297
vt 0.061780 0.222471
vt 0.088770 0.223269
vt 0.088771 0.260498
vt 0.034790 0.260499
vt 0.034790 0.223270
vt 0.105407 0.032350
vt 0.105407 0.261752
vt 0.601649 0.606656
vt 0.563368 0.606656
vt 0.563368 0.637606
vt 0.601649 0.637606
vt 0.601649 0.606656
vt 0.563368 0.606656
vt 0.563368 0.637606
vt 0.601649 0.637606
vt 0.558595 0.641273
vt 0.606763 0.641273
vt 0.606763 0.583218
vt 0.558595 0.583218
vt 0.558595 0.583218
vt 0.558595 0.641273
vt 0.606763 0.641273
vt 0.606763 0.583218
vt 0.601649 0.606656
vt 0.601649 0.637606
vt 0.563368 0.637606
vt 0.563368 0.606656
vt 0.558595 0.641273
vt 0.558595 0.583218
vt 0.606763 0.583218
vt 0.606763 0.641273
vt 0.601649 0.606656
vt 0.601649 0.637606
vt 0.563368 0.637606
vt 0.563368 0.606656
vt 0.558595 0.583218
vt 0.606763 0.583218
vt 0.606763 0.641273
vt 0.558595 0.641273
vn 0.647286 0.540438 -0.537539
vn -0.000000 0.705625 -0.708585
vn -0.000000 0.705625 0.708585
vn 0.647286 0.540438 0.537538
vn -0.647287 0.540438 -0.537538
vn -0.647286 -0.540438 -0.537538
vn -0.647286 -0.540438 0.537539
vn -0.647286 0.540438 0.537539
vn -0.000000 0.705625 0.708585
vn -0.647286 0.540438 0.537539
vn -0.647286 -0.540438 0.537539
vn 0.000000 -0.705625 0.708585
vn -0.000000 0.705625 -0.708585
vn -0.647287 0.540438 -0.537538
vn -0.647286 0.540438 0.537539
vn -0.000000 0.705625 0.708585
vn 0.647286 -0.540438 -0.537539
vn 0.647287 -0.540438 0.537538
vn 0.000000 -0.705625 0.708585
vn 0.000000 -0.705625 -0.708585
vn 0.647286 0.540438 0.537538
vn -0.000000 0.705625 0.708585
vn 0.000000 -0.705625 0.708585
vn 0.647287 -0.540438 0.537538
vn 0.000000 -0.705625 -0.708585
vn 0.000000 -0.705625 0.708585
vn -0.647286 -0.540438 0.537539
vn -0.647286 -0.540438 -0.537538
vn -0.000000 0.705625 -0.708585
vn 0.000000 -0.705625 -0.708585
vn -0.647286 -0.540438 -0.537538
vn -0.647287 0.540438 -0.537538
vn 0.647286 0.540438 -0.537539
vn 0.647286 -0.540438 -0.537539
vn 0.000000 -0.705625 -0.708585
vn -0.000000 0.705625 -0.708585
vn 0.647287 -0.540438 0.537538
vn 0.647286 -0.540438 -0.537539
vn 0.647286 0.540438 -0.537539
vn 0.647286 0.540438 0.537538
vn 1.000000 0.000000 -0.000000
vn 1.000000 0.000000 -0.000000
vn 1.000000 0.000000 -0.000000
vn 1.000000 0.000000 -0.000000
vn -1.000000 -0.000000 0.000000
vn -1.000000 -0.000000 0.000000
vn -1.000000 -0.000000 0.000000
vn -1.000000 -0.000000 0.000000
vn -0.000000 -0.000000 -1.000000
vn -0.000000 -0.000000 -1.000000
vn -0.000000 -0.000000 -1.000000
vn -0.000000 -0.000000 -1.000000
vn 0.000000 0.000000 1.000000
vn 0.000000 0.000000 1.000000
vn 0.000000 0.000000 1.000000
vn 0.000000 0.000000 1.000000
vn 1.000000 0.000000 -0.000000
vn 1.000000 0.000000 -0.000000
vn 1.000000 0.000000 -0.000000
vn 1.000000 0.000000 -0.000000
vn 0.000000 0.000000 1.000000
vn 0.000000 0.000000 1.000000
vn 0.000000 0.000000 1.000000
vn 0.000000 0.000000 1.000000
vn -1.000000 -0.000000 0.000000
vn -1.000000 -0.000000 0.000000
vn -1.000000 -0.000000 0.000000
vn -1.000000 -0.000000 0.000000
vn -0.000000 -0.000000 -1.000000
vn -0.000000 -0.000000 -1.000000
vn -0.000000 -0.000000 -1.000000
vn -0.000000 -0.000000 -1.000000
s off
g polySurface9
usemtl InterceptorSG
f 7/1/1 12/2/2 6/3/3 1/4/4
f 8/5/5 10/6/6 4/7/7 2/8/8
f 6/9/9 2/10/10 4/11/11 5/12/12
f 12/2/13 8/5/14 2/8/15 6/3/16
f 9/13/17 3/14/18 5/15/19 11/16/20
f 1/17/21 6/9/22 5/12/23 3/18/24
f 11/19/25 5/20/26 4/21/27 10/22/28
f 12/23/29 11/24/30 10/25/31 8/26/32
f 7/27/33 9/28/34 11/24/35 12/23/36
f 3/29/37 9/30/38 7/1/39 1/4/40
f 14/31/41 13/32/42 15/33/43 16/34/44
f 17/35/45 18/36/46 20/37/47 19/38/48
f 21/39/49 22/40/50 23/41/51 24/42/52
f 27/43/53 26/44/54 25/45/55 28/46/56
f 30/47/57 32/48/58 31/49/59 29/50/60
f 33/51/61 36/52/62 35/53/63 34/54/64
f 37/55/65 39/56/66 40/57/67 38/58/68
f 43/59/69 44/60/70 41/61/71 42/62/72
